<svg width="154" height="55" viewBox="0 0 154 55" fill="none" xmlns="http://www.w3.org/2000/svg">
<rect x="1" y="1" width="152" height="53" rx="26.5" stroke="#6B47ED"/>
<path d="M59.69 22H61.89C63.84 22 65.45 20.81 65.45 18.5C65.45 16.19 63.84 15 61.89 15H59.69V22ZM60.84 20.97V16.02H61.81C63.07 16.02 64.25 16.71 64.25 18.5C64.25 20.29 63.07 20.97 61.81 20.97H60.84ZM68.7864 22.08C70.2964 22.08 71.3864 20.99 71.3864 19.48C71.3864 17.97 70.2964 16.88 68.7864 16.88C67.2664 16.88 66.1864 17.97 66.1864 19.48C66.1864 20.99 67.2664 22.08 68.7864 22.08ZM68.7864 21.13C67.8864 21.13 67.2864 20.45 67.2864 19.48C67.2864 18.51 67.8864 17.83 68.7864 17.83C69.6764 17.83 70.2864 18.51 70.2864 19.48C70.2864 20.45 69.6764 21.13 68.7864 21.13ZM73.3879 22H74.3879L75.4779 18.49L76.5679 22H77.5779L79.1279 16.96H78.0179L77.0679 20.48L75.9879 16.96H74.9779L73.8879 20.48L72.9379 16.96H71.8279L73.3879 22ZM80.0111 22H81.1011V19.79C81.1011 18.58 81.6111 17.86 82.4611 17.86C83.1011 17.86 83.4911 18.3 83.4911 18.93V22H84.5811V18.68C84.5811 17.59 83.8311 16.88 82.7611 16.88C82.0211 16.88 81.4411 17.26 81.1011 17.8V16.96H80.0111V22ZM85.8607 22H86.9507V14.92H85.8607V22ZM90.5735 22.08C92.0835 22.08 93.1735 20.99 93.1735 19.48C93.1735 17.97 92.0835 16.88 90.5735 16.88C89.0535 16.88 87.9735 17.97 87.9735 19.48C87.9735 20.99 89.0535 22.08 90.5735 22.08ZM90.5735 21.13C89.6735 21.13 89.0735 20.45 89.0735 19.48C89.0735 18.51 89.6735 17.83 90.5735 17.83C91.4635 17.83 92.0735 18.51 92.0735 19.48C92.0735 20.45 91.4635 21.13 90.5735 21.13ZM96.0717 16.88C95.0017 16.88 94.1417 17.53 93.9817 18.52L94.9617 18.7C95.0317 18.1 95.4617 17.74 96.0717 17.74C96.7317 17.74 97.1617 18.12 97.1617 18.74V18.81L96.2117 18.91C94.6617 19.07 93.8917 19.6 93.8917 20.59C93.8917 21.45 94.5817 22.08 95.5817 22.08C96.2517 22.08 96.8717 21.74 97.1617 21.23V22H98.2317V18.86C98.2317 17.6 97.3517 16.88 96.0717 16.88ZM95.8017 21.24C95.2917 21.24 94.9617 20.96 94.9617 20.56C94.9617 20.12 95.3817 19.82 96.2017 19.73L97.1617 19.62V19.83C97.1517 20.65 96.6517 21.24 95.8017 21.24ZM101.653 22.08C102.323 22.08 102.933 21.78 103.173 21.36V22H104.263V14.92H103.173V17.59C102.873 17.17 102.283 16.88 101.633 16.88C100.113 16.88 99.243 17.96 99.243 19.48C99.243 21 100.113 22.08 101.653 22.08ZM101.793 21.13C100.913 21.13 100.333 20.47 100.333 19.48C100.333 18.48 100.913 17.83 101.793 17.83C102.673 17.83 103.253 18.48 103.253 19.48C103.253 20.47 102.673 21.13 101.793 21.13ZM110.281 22.08C111.791 22.08 112.881 20.99 112.881 19.48C112.881 17.97 111.791 16.88 110.281 16.88C108.761 16.88 107.681 17.97 107.681 19.48C107.681 20.99 108.761 22.08 110.281 22.08ZM110.281 21.13C109.381 21.13 108.781 20.45 108.781 19.48C108.781 18.51 109.381 17.83 110.281 17.83C111.171 17.83 111.781 18.51 111.781 19.48C111.781 20.45 111.171 21.13 110.281 21.13ZM113.888 22H114.978V19.79C114.978 18.58 115.488 17.86 116.338 17.86C116.978 17.86 117.368 18.3 117.368 18.93V22H118.458V18.68C118.458 17.59 117.708 16.88 116.638 16.88C115.898 16.88 115.318 17.26 114.978 17.8V16.96H113.888V22ZM125 21.96L124.93 20.99C124.74 21.08 124.51 21.11 124.32 21.11C123.91 21.11 123.63 20.85 123.63 20.35V17.89H124.93V16.96H123.63V15.46H122.54V16.96H121.66V17.89H122.54V20.41C122.54 21.56 123.25 22.08 124.2 22.08C124.48 22.08 124.76 22.04 125 21.96ZM126.095 22H127.185V19.82C127.185 18.59 127.695 17.86 128.535 17.86C129.215 17.86 129.635 18.27 129.635 18.94V22H130.725V18.69C130.725 17.59 129.975 16.88 128.835 16.88C128.125 16.88 127.535 17.2 127.185 17.83V14.92H126.095V22ZM136.673 19.29C136.673 18.06 135.813 16.88 134.193 16.88C132.593 16.88 131.733 18.12 131.733 19.48C131.733 20.84 132.643 22.08 134.243 22.08C135.423 22.08 136.283 21.52 136.553 20.55L135.523 20.29C135.393 20.84 134.923 21.15 134.263 21.15C133.463 21.15 132.903 20.61 132.803 19.74H136.653C136.663 19.65 136.673 19.44 136.673 19.29ZM132.853 18.91C133.013 18.16 133.503 17.74 134.193 17.74C134.993 17.74 135.443 18.23 135.513 18.91H132.853ZM66.574 39H68.268L64.446 29.2H62.92L59.112 39H60.806L61.674 36.69H65.706L66.574 39ZM62.206 35.276L63.69 31.356L65.174 35.276H62.206ZM69.2749 41.548H70.8009V38.188C71.2349 38.748 72.0609 39.112 72.9149 39.112C75.0289 39.112 76.3169 37.6 76.3169 35.472C76.3169 33.344 75.0849 31.832 72.9989 31.832C72.0189 31.832 71.1929 32.266 70.8009 32.84V31.944H69.2749V41.548ZM72.7469 37.782C71.5149 37.782 70.7029 36.858 70.7029 35.472C70.7029 34.072 71.5149 33.162 72.7469 33.162C73.9789 33.162 74.7909 34.072 74.7909 35.472C74.7909 36.858 73.9789 37.782 72.7469 37.782ZM77.7241 41.548H79.2501V38.188C79.6841 38.748 80.5101 39.112 81.3641 39.112C83.4781 39.112 84.7661 37.6 84.7661 35.472C84.7661 33.344 83.5341 31.832 81.4481 31.832C80.4681 31.832 79.6421 32.266 79.2501 32.84V31.944H77.7241V41.548ZM81.1961 37.782C79.9641 37.782 79.1521 36.858 79.1521 35.472C79.1521 34.072 79.9641 33.162 81.1961 33.162C82.4281 33.162 83.2401 34.072 83.2401 35.472C83.2401 36.858 82.4281 37.782 81.1961 37.782ZM92.7706 39.112C94.9686 39.112 96.4106 37.978 96.4106 36.27C96.4106 32.322 91.0346 33.694 91.0346 31.72C91.0346 30.964 91.6786 30.516 92.7426 30.516C93.8626 30.516 94.6326 31.146 94.8286 32.14L96.2986 31.538C96.0186 30.068 94.5766 29.088 92.7426 29.088C90.8246 29.088 89.3826 30.166 89.3826 31.72C89.3826 35.248 94.7446 33.974 94.7446 36.298C94.7446 37.138 93.9886 37.684 92.8266 37.684C91.6506 37.684 90.6846 36.858 90.5166 35.598L89.0186 36.06C89.2986 37.852 90.8666 39.112 92.7706 39.112ZM101.757 38.944L101.659 37.586C101.393 37.712 101.071 37.754 100.805 37.754C100.231 37.754 99.8394 37.39 99.8394 36.69V33.246H101.659V31.944H99.8394V29.844H98.3134V31.944H97.0814V33.246H98.3134V36.774C98.3134 38.384 99.3074 39.112 100.637 39.112C101.029 39.112 101.421 39.056 101.757 38.944ZM106.156 39.112C108.27 39.112 109.796 37.586 109.796 35.472C109.796 33.358 108.27 31.832 106.156 31.832C104.028 31.832 102.516 33.358 102.516 35.472C102.516 37.586 104.028 39.112 106.156 39.112ZM106.156 37.782C104.896 37.782 104.056 36.83 104.056 35.472C104.056 34.114 104.896 33.162 106.156 33.162C107.402 33.162 108.256 34.114 108.256 35.472C108.256 36.83 107.402 37.782 106.156 37.782ZM115.589 33.428L115.673 31.958C115.463 31.874 115.155 31.832 114.889 31.832C114.035 31.832 113.111 32.448 112.733 33.288V31.944H111.207V39H112.733V36.368C112.733 34.184 113.643 33.26 114.679 33.26C115.001 33.26 115.337 33.316 115.589 33.428ZM123.022 35.206C123.022 33.484 121.818 31.832 119.55 31.832C117.31 31.832 116.106 33.568 116.106 35.472C116.106 37.376 117.38 39.112 119.62 39.112C121.272 39.112 122.476 38.328 122.854 36.97L121.412 36.606C121.23 37.376 120.572 37.81 119.648 37.81C118.528 37.81 117.744 37.054 117.604 35.836H122.994C123.008 35.71 123.022 35.416 123.022 35.206ZM117.674 34.674C117.898 33.624 118.584 33.036 119.55 33.036C120.67 33.036 121.3 33.722 121.398 34.674H117.674Z" fill="#6B47ED"/>
<rect opacity="0.01" x="18" y="14" width="24.9781" height="24.9781" fill="#6B47ED"/>
<path fill-rule="evenodd" clip-rule="evenodd" d="M34.8258 14.0365C34.9342 14.1991 35.2594 16.1507 33.85 17.9395C32.2237 20.0537 30.1096 20.2163 29.9469 20.0537C29.7843 19.8911 29.7843 17.9395 31.0853 16.1507C32.549 14.1991 34.6631 13.8739 34.8258 14.0365ZM40.1382 22.4931C39.6503 22.8184 37.2109 24.4446 37.3736 27.0466C37.5362 31.4376 40.7887 32.2507 41.1682 32.1965C38.2409 38.7016 35.6389 39.1894 33.85 38.5389C32.3863 37.5632 29.7843 37.7258 28.9712 38.2137C27.3449 39.0268 26.3692 39.3521 24.9055 38.3763C23.4419 37.4005 19.5388 32.2507 19.8099 26.7214C20.1351 21.1921 24.3634 19.8911 25.8271 19.8911C26.7428 19.8911 27.5733 20.1894 28.3841 20.4806C29.1571 20.7583 29.9121 21.0295 30.7059 21.0295C31.3277 21.0295 31.8752 20.8065 32.4905 20.5561C33.1625 20.2825 33.9154 19.976 34.9342 19.8911C38.0241 19.7284 40.1382 22.3305 40.1382 22.3305V22.4931Z" fill="#6B47ED"/>
</svg>
