<svg width="154" height="55" viewBox="0 0 154 55" fill="none" xmlns="http://www.w3.org/2000/svg">
<rect x="1" y="1" width="152" height="53" rx="26.5" stroke="#6B47ED"/>
<path d="M59.78 22.08C60.69 22.08 61.51 21.68 61.83 21.06V22H62.89V18.31H59.56V19.28H61.8C61.74 20.33 60.98 21.05 59.82 21.05C58.51 21.05 57.57 20.14 57.57 18.5C57.57 16.86 58.51 15.94 59.83 15.94C60.85 15.94 61.58 16.52 61.76 17.44L62.92 17.2C62.65 15.79 61.47 14.92 59.84 14.92C58.05 14.92 56.38 16.11 56.38 18.5C56.38 20.89 58.02 22.08 59.78 22.08ZM68.7905 19.29C68.7905 18.06 67.9305 16.88 66.3105 16.88C64.7105 16.88 63.8505 18.12 63.8505 19.48C63.8505 20.84 64.7605 22.08 66.3605 22.08C67.5405 22.08 68.4005 21.52 68.6705 20.55L67.6405 20.29C67.5105 20.84 67.0405 21.15 66.3805 21.15C65.5805 21.15 65.0205 20.61 64.9205 19.74H68.7705C68.7805 19.65 68.7905 19.44 68.7905 19.29ZM64.9705 18.91C65.1305 18.16 65.6205 17.74 66.3105 17.74C67.1105 17.74 67.5605 18.23 67.6305 18.91H64.9705ZM72.5859 21.96L72.5159 20.99C72.3259 21.08 72.0959 21.11 71.9059 21.11C71.4959 21.11 71.2159 20.85 71.2159 20.35V17.89H72.5159V16.96H71.2159V15.46H70.1259V16.96H69.2459V17.89H70.1259V20.41C70.1259 21.56 70.8359 22.08 71.7859 22.08C72.0659 22.08 72.3459 22.04 72.5859 21.96ZM76.4476 16.12C76.8576 16.12 77.1676 15.81 77.1676 15.42C77.1676 15.02 76.8576 14.71 76.4476 14.71C76.0476 14.71 75.7476 15.02 75.7476 15.42C75.7476 15.81 76.0476 16.12 76.4476 16.12ZM75.9076 22H76.9976V16.96H75.9076V22ZM81.1504 21.96L81.0804 20.99C80.8904 21.08 80.6604 21.11 80.4704 21.11C80.0604 21.11 79.7804 20.85 79.7804 20.35V17.89H81.0804V16.96H79.7804V15.46H78.6904V16.96H77.8104V17.89H78.6904V20.41C78.6904 21.56 79.4004 22.08 80.3504 22.08C80.6304 22.08 80.9104 22.04 81.1504 21.96ZM86.802 22.08C88.312 22.08 89.402 20.99 89.402 19.48C89.402 17.97 88.312 16.88 86.802 16.88C85.282 16.88 84.202 17.97 84.202 19.48C84.202 20.99 85.282 22.08 86.802 22.08ZM86.802 21.13C85.902 21.13 85.302 20.45 85.302 19.48C85.302 18.51 85.902 17.83 86.802 17.83C87.692 17.83 88.302 18.51 88.302 19.48C88.302 20.45 87.692 21.13 86.802 21.13ZM90.4095 22H91.4995V19.79C91.4995 18.58 92.0095 17.86 92.8595 17.86C93.4995 17.86 93.8895 18.3 93.8895 18.93V22H94.9795V18.68C94.9795 17.59 94.2295 16.88 93.1595 16.88C92.4195 16.88 91.8395 17.26 91.4995 17.8V16.96H90.4095V22ZM61.292 39.112C62.566 39.112 63.714 38.552 64.162 37.684V39H65.646V33.834H60.984V35.192H64.12C64.036 36.662 62.972 37.67 61.348 37.67C59.514 37.67 58.198 36.396 58.198 34.1C58.198 31.804 59.514 30.516 61.362 30.516C62.79 30.516 63.812 31.328 64.064 32.616L65.688 32.28C65.31 30.306 63.658 29.088 61.376 29.088C58.87 29.088 56.532 30.754 56.532 34.1C56.532 37.446 58.828 39.112 61.292 39.112ZM70.6307 39.112C72.7447 39.112 74.2707 37.586 74.2707 35.472C74.2707 33.358 72.7447 31.832 70.6307 31.832C68.5027 31.832 66.9907 33.358 66.9907 35.472C66.9907 37.586 68.5027 39.112 70.6307 39.112ZM70.6307 37.782C69.3707 37.782 68.5307 36.83 68.5307 35.472C68.5307 34.114 69.3707 33.162 70.6307 33.162C71.8767 33.162 72.7307 34.114 72.7307 35.472C72.7307 36.83 71.8767 37.782 70.6307 37.782ZM78.9432 39.112C81.0572 39.112 82.5832 37.586 82.5832 35.472C82.5832 33.358 81.0572 31.832 78.9432 31.832C76.8152 31.832 75.3032 33.358 75.3032 35.472C75.3032 37.586 76.8152 39.112 78.9432 39.112ZM78.9432 37.782C77.6832 37.782 76.8432 36.83 76.8432 35.472C76.8432 34.114 77.6832 33.162 78.9432 33.162C80.1892 33.162 81.0432 34.114 81.0432 35.472C81.0432 36.83 80.1892 37.782 78.9432 37.782ZM89.0057 31.944V32.756C88.5997 32.21 87.7877 31.832 86.8917 31.832C84.8197 31.832 83.6157 33.274 83.6157 35.318C83.6157 37.362 84.8197 38.804 86.9197 38.804C87.8437 38.804 88.6697 38.44 89.0197 37.908V38.762C89.0197 39.742 88.2357 40.414 87.1017 40.414C86.1777 40.414 85.4357 39.952 85.3517 39.252L83.9237 39.49C84.1477 40.778 85.4497 41.66 87.1017 41.66C89.1317 41.66 90.5177 40.428 90.5177 38.608V31.944H89.0057ZM87.1297 37.474C85.9257 37.474 85.1417 36.62 85.1417 35.318C85.1417 34.016 85.9257 33.162 87.1297 33.162C88.3197 33.162 89.1037 34.016 89.1037 35.318C89.1037 36.62 88.3197 37.474 87.1297 37.474ZM92.3062 39H93.8322V29.088H92.3062V39ZM102.18 35.206C102.18 33.484 100.976 31.832 98.7081 31.832C96.4681 31.832 95.2641 33.568 95.2641 35.472C95.2641 37.376 96.5381 39.112 98.7781 39.112C100.43 39.112 101.634 38.328 102.012 36.97L100.57 36.606C100.388 37.376 99.7301 37.81 98.8061 37.81C97.6861 37.81 96.9021 37.054 96.7621 35.836H102.152C102.166 35.71 102.18 35.416 102.18 35.206ZM96.8321 34.674C97.0561 33.624 97.7421 33.036 98.7081 33.036C99.8281 33.036 100.458 33.722 100.556 34.674H96.8321ZM107.032 39H108.684V35.052H110.896C112.842 35.052 114.102 33.904 114.102 32.126C114.102 30.348 112.842 29.2 110.896 29.2H107.032V39ZM108.684 33.624V30.628H110.784C111.82 30.628 112.436 31.188 112.436 32.126C112.436 33.064 111.82 33.624 110.784 33.624H108.684ZM115.302 39H116.828V29.088H115.302V39ZM121.326 31.832C119.828 31.832 118.624 32.742 118.4 34.128L119.772 34.38C119.87 33.54 120.472 33.036 121.326 33.036C122.25 33.036 122.852 33.568 122.852 34.436V34.534L121.522 34.674C119.352 34.898 118.274 35.64 118.274 37.026C118.274 38.23 119.24 39.112 120.64 39.112C121.578 39.112 122.446 38.636 122.852 37.922V39H124.35V34.604C124.35 32.84 123.118 31.832 121.326 31.832ZM120.948 37.936C120.234 37.936 119.772 37.544 119.772 36.984C119.772 36.368 120.36 35.948 121.508 35.822L122.852 35.668V35.962C122.838 37.11 122.138 37.936 120.948 37.936ZM130.505 31.944L128.615 36.83L126.767 31.944H125.115L127.859 38.79L126.795 41.548H128.363L132.073 31.944H130.505Z" fill="#6B47ED"/>
<mask id="mask0_190_2058" style="mask-type:alpha" maskUnits="userSpaceOnUse" x="17" y="15" width="24" height="25">
<path fill-rule="evenodd" clip-rule="evenodd" d="M17 15H40.0539V40H17V15Z" fill="white"/>
</mask>
<g mask="url(#mask0_190_2058)">
<path fill-rule="evenodd" clip-rule="evenodd" d="M20.9614 15.647L34.9367 23.5405L31.9881 26.4194L20.9614 15.647ZM39.2881 25.988C39.7663 26.3485 40.0488 26.9065 40.0538 27.5C40.0604 28.0864 39.786 28.6412 39.3134 28.9974L36.339 30.6727L33.092 27.5L36.339 24.3272L39.2873 25.9897L39.2881 25.988ZM34.9367 31.4595L20.9614 39.353L31.9889 28.5787L34.9376 31.4575L34.9367 31.4595ZM16.9999 38.2868V16.7133C16.9988 15.9829 17.4231 15.3165 18.0908 15L30.8858 27.5L18.0908 40C17.4255 39.6809 17.0022 39.0163 16.9999 38.2868Z" fill="#6B47ED"/>
</g>
</svg>
