<svg xmlns="http://www.w3.org/2000/svg" width="16" height="17" viewBox="0 0 16 17" fill="currentColor" class="w-6 h-6 pr-2"><g id="Frame 1886"><rect width="16" height="16" transform="translate(0 0.5)" fill="white"></rect><path id="Vector" d="M7.21429 1.5C7.21429 1.5 11.4107 2.95283 10.4821 7.44339C10.4821 7.44339 10.9464 7.04717 11.4107 6.25471C11.4107 6.25471 13.5 8.10377 13.5 10.7453C13.5 12.5943 12.1071 14.1792 9.32143 15.5H6.82145C4.46429 14.625 2.5 12.8915 2.5 10.25C2.5 5.31386 6.89391 6.13815 7.21429 1.5ZM8.05454 8.5C8.05454 8.5 6.08873 9.56251 5.70673 11.542C5.50167 12.6046 5.75302 13.9314 7.00989 15.5H8.98311C9.91168 14.0032 9.95037 12.7704 9.09918 11.8019C7.24203 9.82076 8.05454 8.5 8.05454 8.5Z" fill="#FC5454"></path></g></svg>