<svg width="193" height="41" viewBox="0 0 193 41" fill="none" xmlns="http://www.w3.org/2000/svg">
<path d="M31.8806 15.8714C36.29 15.827 39.828 12.256 39.783 7.89545C39.738 3.53492 36.127 0.036079 31.7177 0.0805717C27.3084 0.125064 23.7704 3.69604 23.8153 8.05657C23.8603 12.4171 27.4713 15.9159 31.8806 15.8714Z" fill="#6B47ED"/>
<path d="M10.6958 2.49081C8.76984 -0.118117 5.06844 -0.69347 2.43031 1.21115C-0.207819 3.11576 -0.789612 6.7762 1.13632 9.37521L16.1125 29.6812C18.0384 32.2901 21.7298 32.8556 24.3779 30.9609C27.0161 29.0562 27.5979 25.4057 25.6719 22.7968L10.6958 2.49081Z" fill="#6B47ED"/>
<path d="M68.4137 23.6896L60.3187 2.37181L53.3673 2.40157L64.4615 29.334C65.2941 31.5263 67.7617 32.6374 69.9785 31.814C71.1521 31.3775 72.075 30.455 72.4963 29.2944L83.3296 2.2627L76.4183 2.29246L68.4137 23.6896Z" fill="#6B47ED"/>
<path d="M90.9639 10.931L84.8851 10.9541L84.9656 31.6668L91.0443 31.6437L90.9639 10.931Z" fill="#6B47ED"/>
<path d="M87.8436 1.25078C85.7872 1.2607 84.1723 2.77844 84.1823 4.81202C84.1923 6.80591 85.8173 8.26413 87.8737 8.25421C89.8798 8.24429 91.4948 6.76623 91.4848 4.78226C91.4848 2.74868 89.8598 1.24086 87.8436 1.25078Z" fill="#6B47ED"/>
<path d="M93.5411 19.8405L93.5813 31.6353L99.66 31.6154L99.6199 20.0985C99.6199 20.0985 99.3591 14.6326 106.952 16.2396L106.932 10.9424C99.1584 9.11715 93.5411 12.5891 93.5411 19.8405Z" fill="#6B47ED"/>
<path d="M143.074 10.2877C136.604 10.3174 131.578 14.8706 131.608 21.14C131.628 27.4491 136.694 32.1015 143.164 32.0816C149.594 32.0618 154.659 27.3697 154.629 21.0507C154.609 14.7814 149.504 10.2678 143.074 10.2877ZM143.144 26.715C139.954 26.7249 137.617 24.2251 137.597 21.1102C137.587 18.045 139.904 15.6543 143.094 15.6444C146.244 15.6345 148.621 18.0053 148.641 21.0706C148.651 24.1953 146.284 26.7051 143.144 26.715Z" fill="#6B47ED"/>
<path d="M124.075 11.002V12.0932C122.56 11.0119 120.504 10.1985 117.896 10.1985C112.128 10.1985 107.464 14.6029 107.484 20.8326C107.504 26.2389 112.198 30.931 117.976 30.9112C120.334 30.9013 122.3 30.2862 123.915 29.2447L123.925 30.6533C123.935 33.8971 121.848 35.6331 119.13 35.643C116.241 35.6529 114.486 34.2344 114.215 32.0718L108.096 32.0917C108.557 37.369 113.071 41.0295 119.15 40.9997C125.489 40.9799 129.983 37.0615 129.953 30.5838L129.873 10.9722L124.075 11.002ZM119.14 25.8917C115.459 25.8917 113.523 23.5407 113.523 20.5747C113.523 17.6384 115.589 15.2576 119.14 15.2576C122.36 15.2576 124.757 17.6384 124.757 20.5747C124.757 23.511 122.46 25.8917 119.14 25.8917Z" fill="#6B47ED"/>
<path d="M185.795 12.1627L192.366 2.28247L186.618 2.30231L182.646 8.35344L178.643 2.33207L172.906 2.36183L179.516 12.1825L172.855 21.8544L178.382 21.8246L182.696 15.7933L187.069 21.7949L192.596 21.775L185.795 12.1627Z" fill="#6B47ED"/>
<path d="M174.912 13.7499H170.057V13.7598C169.425 16.3191 167.75 17.6682 165.172 17.6782C161.962 17.6782 159.705 15.3767 159.695 12.0833C159.685 8.78994 161.922 6.45877 165.182 6.44885C167.72 6.44885 169.405 7.78803 170.047 10.3374L170.057 10.3771H174.912L174.882 10.1787C174.039 5.16918 170.237 1.9353 165.182 1.9353H165.142C162.343 1.94522 159.765 2.96697 157.869 4.82199C155.943 6.69685 154.89 9.28593 154.91 12.1131C154.93 17.8666 159.344 22.2115 165.182 22.2115H165.222C170.308 22.1917 174.099 18.9281 174.902 13.8888L174.912 13.7499Z" fill="#6B47ED"/>
</svg>
